<svg xmlns="http://www.w3.org/2000/svg" width="299" height="85" fill="none"><path fill="#fff" d="M.418 35.97v.04l-.009.053-.033.221v.055c0 .044-.012.087-.017.126l-.018.115v.177l-.054.424-.044.377c0 .048-.01.096-.016.145v.014l-.05.463q-.015.172-.033.349v.01l-.011.116c0 .045-.008.092-.011.137-.004.045-.01.097-.013.146v.075c0 .025-.006.074-.01.112l-.009.139v.065c-.013.158-.025.324-.034.513v.011c0 .08-.008.162-.012.243s-.01.169-.013.25v.176c0 .096-.008.19-.01.286v.126a24 24 0 0 0-.015.582v.076c0 .138-.006.273-.006.41v.929a30.68 30.68 0 0 0 34.511 29.977 35 35 0 0 0 1.712-.25A35.47 35.47 0 0 1 22.799 58a37 37 0 0 1-.511-1.09l-.057-.12a35.32 35.32 0 0 1 3.302-34.47 35.292 35.292 0 0 1 46.88-10.216l-.009-.01-.15-.148c-.067-.065-.136-.125-.204-.194l-.063-.06-.016-.014v-.007l-.01-.01c-.058-.056-.125-.116-.186-.174-.06-.058-.125-.125-.197-.184l-.007-.01-.006-.007-.017-.013-.034-.032a11 11 0 0 0-.224-.207l-.014-.014-.099-.089-.049-.044q-.164-.149-.324-.292c-.106-.095-.243-.213-.361-.316l-.117-.1c-.081-.07-.161-.14-.25-.21l-.166-.138-.09-.075-.066-.054-.034-.03q-.147-.123-.288-.235l-.014-.012h-.006l-.009-.008-.011-.009q-.109-.088-.216-.174l-.006-.006c-.23-.186-.47-.377-.71-.557h-.007a5 5 0 0 0-.194-.15l-.08-.06-.047-.036L68.1 8.4l-.01-.008-.008-.006h-.007l-.012-.008-.134-.1-.05-.037-.183-.135-.057-.041-.104-.076-.073-.052q-.108-.08-.217-.156l-.052-.038-.02-.013-.019-.014-.532-.377h-.007l-.24-.164-.059-.04h-.006c-.125-.078-.24-.158-.361-.237l-.02-.013-.009-.006-.011-.006-.077-.05-.26-.169-.013-.008-.013-.01c-.125-.085-.26-.165-.393-.25l-.013-.008-.018-.01a15 15 0 0 0-.405-.252l-.215-.125-.099-.06-.125-.073h-.01l-.074-.044-.294-.17-.073-.043-.1-.058q-.135-.08-.271-.156l-.026-.014a44 44 0 0 0-1.84-.97l-.041-.022h-.006l-.014-.006a8 8 0 0 0-.413-.202l-.365-.175-.033-.015-.02-.01h-.018c-.432-.204-.827-.376-1.21-.543h-.038q-.136-.06-.277-.125l-.039-.015-.027-.013-.166-.069-.177-.072-.083-.033c-.41-.166-.752-.299-1.056-.413l-.186-.07-.025-.008-.194-.073a38 38 0 0 0-1.605-.545h-.012l-.027-.01q-.155-.049-.31-.096l-.318-.098-.19-.057q-.353-.104-.676-.194h-.021l-.088-.023-.14-.038-.03-.009-.04-.012c-.449-.126-.905-.229-1.363-.334-.27-.063-.539-.126-.81-.18-.457-.097-.914-.195-1.38-.278q-.258-.045-.514-.088h-.02q-.255-.045-.513-.083L48.905.46l-.298-.045Q47.87.312 47.13.234A44 44 0 0 0 42.65 0c-.9 0-1.804.033-2.705.09-.095 0-.19.008-.285.014-.995.07-1.987.172-2.968.309l-.527.078h-.014L.421 35.953z" style="mix-blend-mode:color"/><path fill="#fff" d="M84.597 48.912v-.067c.01-.06.018-.125.026-.18v-.062c.01-.078.025-.158.033-.236v-.052l.01-.053q.001-.038.01-.073l.033-.266.025-.183c.023-.177.041-.341.06-.502v-.023c.02-.158.034-.307.048-.458.013-.125.025-.25.034-.362v-.006l.011-.116q.013-.126.022-.25v-.066q.015-.162.025-.322v-.044c.013-.156.025-.32.034-.502v-.011l.03-.49v-.182q.011-.203.018-.41c.007-.186.013-.361.017-.538v-1.437a30.677 30.677 0 0 0-30.678-30.219c-1.86 0-3.715.168-5.545.502a35.276 35.276 0 0 1-36.192 60.56l.008.008.025.022.023.023q.036.04.078.075l.085.083q.103.104.208.202l.012.011.013.013.377.361.021.017.018.017.263.251.006.006.01.007q.228.21.47.421l.01.007.009.008.31.275.02.015.07.06h.006l.302.261.062.053.014.014q.12.104.25.204l.033.025.03.028q.108.09.241.197l.03.022.028.023q.094.084.19.153l.02.017.018.014q.342.276.701.549c.05.041.103.08.154.125.05.045.116.09.176.133q.052.037.097.073l.058.041.286.214.089.064.144.102.018.014.021.014q.105.079.213.154l.078.056q.263.187.53.376l.017.009.016.011q.119.082.236.16l.06.04.198.125.208.14c.105.068.214.141.327.21q.169.106.33.21h.271l.483.461q.111.07.225.136c.146.086.296.174.444.25l.014.01.014.008c.116.07.233.133.353.2a36 36 0 0 0 2.324 1.21l.061.032q.198.093.397.187c.401.187.811.376 1.212.543h.018000000000000002l.299.125.097.042.401.165c.328.133.683.271 1.054.41h.023q.172.068.347.126h.03c.543.2 1.082.377 1.6.546l.019.006h.016q.156.054.314.1h.03q.237.076.474.147l.133.04.566.16.292.08h.023a41 41 0 0 0 3.544.79h.028c.141.026.296.053.487.086h.020999999999999998c.19.032.347.058.493.078h.045q.247.04.502.072h.014c3.953.55 7.964.55 11.918 0l.041-.006q.237-.033.471-.069h.039L84.55 48.934c.046.018.046.004.046-.022M282.554 14.731h4.777l10.75 27.684h-4.309l-3.156-8.403h-11.859l-3.114 8.403h-4.095zm7.038 16.423L284.9 18.656h-.384l-4.692 12.498zM256.364 17.632h-9.384v-2.9h22.906v2.9h-9.341v24.783h-4.181zM238.25 14.731h4.138v27.684h-4.138zM221.941 42.842q-3.54 0-8.445-.683v-3.455q4.948 1.066 8.701 1.066 3.157 0 4.607-.682 1.45-.725 1.451-2.645V32.86q0-1.791-1.024-2.517-1.024-.725-3.583-.725h-3.242q-4.052 0-5.759-1.62-1.706-1.622-1.706-5.034v-2.218q0-2.26.981-3.669 1.024-1.407 3.37-2.09 2.389-.682 6.526-.682 2.773 0 7.124.469v3.114q-4.863-.726-7.422-.725-3.968 0-5.247.767-1.323.81-1.322 2.688v3.156q0 1.45 1.023 2.133 1.067.64 3.626.64h3.327q2.858 0 4.437.683 1.62.681 2.26 2.09.683 1.365.683 3.71v2.006q0 2.943-1.109 4.65-1.066 1.705-3.327 2.43t-5.93.726M202.676 14.731h4.137v27.684h-4.137zM175.724 14.731h9.726q3.668 0 5.716.47 2.09.426 3.028 1.578.981 1.151.981 3.37v4.777q0 2.475-2.047 3.84-2.005 1.321-5.119 1.322l8.873 12.327h-5.076L183.871 30.6h-4.009v11.816h-4.138zm9.555 13.138q3.072 0 4.394-.725 1.365-.768 1.365-2.73v-3.839q0-3.114-5.375-3.114h-5.801V27.87zM157.608 42.842q-11.603 0-11.603-7.508V22.24q0-7.934 11.603-7.934 11.73 0 11.73 7.891v13.138q0 4.01-3.242 5.759t-8.488 1.749m.085-2.773q7.635 0 7.635-4.777V22.11q0-5.12-7.678-5.119-3.71 0-5.716 1.152-1.962 1.152-1.962 3.967v13.18q0 4.778 7.721 4.778M110.032 14.731h6.185l8.872 23.035.128.042 8.404-23.077h5.972v27.684h-3.626V18.997h-.213l-8.916 23.418h-3.711l-9.171-23.418h-.213v23.418h-3.711zM248.141 62.497h1.92v1.258q.298-1.472 3.391-1.472 1.983 0 2.773.725.81.705.81 2.24v7.571h-1.919v-7.465q0-.405-.064-.66a1.45 1.45 0 0 0-.256-.513q-.427-.533-1.898-.533-1.131 0-1.749.17-.597.15-.853.513-.235.362-.235 1.023v7.465h-1.92zM240.392 73.033q-1.365 0-2.048-.107a4.5 4.5 0 0 1-1.365-.405 2 2 0 0 1-1.024-1.024q-.32-.725-.32-1.94v-3.584q0-.96.235-1.685t.619-1.13q.32-.363.959-.555a6.3 6.3 0 0 1 1.344-.277 29 29 0 0 1 1.6-.043q1.109 0 1.663.064.576.043 1.216.213.661.192 1.024.576.362.384.618 1.11.235.746.235 1.727v3.583q0 1.813-.832 2.645-.34.34-.981.533a7 7 0 0 1-1.322.256q-.811.043-1.621.043m0-1.259q.896 0 1.301-.042t.789-.235a.97.97 0 0 0 .533-.555q.171-.405.171-1.109v-4.18q0-.96-.235-1.386-.235-.448-.81-.576-.555-.15-1.749-.15-1.195 0-1.771.15-.553.128-.789.576-.234.426-.234 1.386v4.18q0 .705.149 1.11.171.383.555.554.383.192.789.235.405.042 1.301.042M230.771 58.764h1.919v2.005h-1.919zm0 3.732h1.919V72.82h-1.919zM226.519 73.033q-1.322 0-2.069-.278-.746-.299-1.088-.98-.32-.705-.319-1.963v-6.057h-2.304v-1.258h2.304v-3.2h1.94v3.2h3.69v1.258h-3.69v6.164q0 .768.171 1.151.192.384.64.555.47.15 1.344.15.276 0 1.535-.171v1.258q-1.088.17-2.154.17M213.891 73.033q-1.472 0-2.282-.278-.789-.277-1.152-.98-.34-.704-.341-2.027 0-1.173.32-1.813.34-.66 1.13-.938.811-.278 2.282-.278h3.093v-1.642q0-.576-.235-.874-.213-.32-.746-.448-.512-.129-1.514-.128-1.6 0-3.541.256v-1.408a43 43 0 0 1 3.818-.192q1.791 0 2.644.277.853.257 1.174.918.32.66.319 2.047v7.294h-1.855v-.98q-.235 1.194-3.114 1.194m.32-1.259q1.046 0 1.77-.15.96-.191.96-.895v-2.815h-2.965q-.917 0-1.322.15a.77.77 0 0 0-.533.511q-.129.384-.128 1.237 0 .768.149 1.194.15.405.533.598.384.17 1.152.17zM203.236 62.497h1.813v1.684q0-.49.426-.917a2.94 2.94 0 0 1 1.088-.704 3.35 3.35 0 0 1 1.301-.277h.938v1.642h-1.066q-1.365 0-1.984.363-.597.342-.597 1.258v7.273h-1.919zM195.486 73.033q-1.365 0-2.048-.107a4.5 4.5 0 0 1-1.365-.405 2 2 0 0 1-1.023-1.024q-.32-.725-.32-1.94v-3.584q0-.96.234-1.685t.619-1.13q.32-.363.96-.555.66-.213 1.343-.277a29 29 0 0 1 1.6-.043q1.109 0 1.664.064.575.043 1.215.213.661.192 1.024.576t.619 1.11q.234.746.234 1.727v3.583q0 1.813-.832 2.645-.34.34-.981.533a6.8 6.8 0 0 1-1.322.256 31 31 0 0 1-1.621.043m0-1.259q.896 0 1.301-.042t.789-.235a.97.97 0 0 0 .533-.555q.171-.405.171-1.109v-4.18q0-.96-.235-1.386-.234-.448-.81-.576-.555-.15-1.749-.15t-1.77.15q-.555.128-.789.576-.235.426-.235 1.386v4.18q0 .705.149 1.11.171.383.555.554.384.192.789.235t1.301.042M178.763 62.497h1.898v1.108h.021q.235-1.322 3.519-1.322 1.962 0 2.965.832 1.002.81 1.002 2.09v4.245q0 .916-.277 1.6-.256.681-.683 1.066-.383.362-1.066.575a6.3 6.3 0 0 1-1.322.278q-.597.063-1.451.064a6.6 6.6 0 0 1-1.727-.214q-.768-.235-.96-.66v5.096h-1.919zm4.649 9.235q1.109 0 1.685-.15.597-.17.853-.597t.256-1.3v-3.797q0-.96-.256-1.43-.256-.468-.853-.618-.576-.17-1.706-.17t-1.685.17q-.555.15-.789.619-.235.448-.235 1.429v3.796q0 .875.235 1.301.256.427.831.597.576.15 1.664.15M171.285 62.497h1.813v1.684q0-.49.427-.917a2.94 2.94 0 0 1 1.087-.704 3.35 3.35 0 0 1 1.301-.277h.939v1.642h-1.067q-1.365 0-1.983.363-.597.342-.597 1.258v7.273h-1.92zM163.535 73.033q-1.365 0-2.047-.107a4.5 4.5 0 0 1-1.365-.405 2 2 0 0 1-1.024-1.024q-.32-.725-.32-1.94v-3.584q0-.96.235-1.685t.618-1.13q.321-.363.96-.555a6.3 6.3 0 0 1 1.344-.277 29 29 0 0 1 1.599-.043q1.11 0 1.664.064.576.043 1.216.213.662.192 1.023.576.363.384.619 1.11.234.746.235 1.727v3.583q0 1.813-.832 2.645-.342.34-.981.533a7 7 0 0 1-1.323.256q-.81.043-1.621.043m0-1.259q.897 0 1.301-.042.406-.043.79-.235a.97.97 0 0 0 .533-.555q.17-.405.17-1.109v-4.18q0-.96-.234-1.386-.235-.448-.811-.576-.553-.15-1.749-.15-1.194 0-1.77.15-.555.128-.789.576-.235.426-.235 1.386v4.18q0 .705.15 1.11.17.383.554.554.384.192.789.235.406.042 1.301.042M152.648 73.033q-5.822 0-5.822-3.754v-6.57q0-3.966 5.822-3.966 1.984 0 3.797.405v1.535q-2.047-.51-3.754-.511-.832 0-1.45.106a5 5 0 0 0-1.195.32q-1.236.534-1.237 2.09v6.484q0 2.39 3.967 2.389 1.707 0 3.754-.512v1.578q-1.812.406-3.882.406" style="mix-blend-mode:color"/></svg>