<svg width="160" height="48" viewBox="0 0 160 48" fill="none" xmlns="http://www.w3.org/2000/svg">
<path d="M0.222816 20.2509V20.2724L0.218135 20.3005C0.212113 20.3393 0.20609 20.3787 0.200737 20.4182V20.4249C0.200737 20.4323 0.200737 20.4403 0.200737 20.4477C0.200737 20.4711 0.194046 20.4938 0.19137 20.5146L0.182002 20.5761V20.5868V20.6049V20.6143V20.6236V20.6283V20.6471V20.6611V20.6705C0.172634 20.7448 0.162598 20.8204 0.15323 20.8966C0.143863 20.9729 0.137838 21.0305 0.129809 21.0974C0.129809 21.1235 0.123787 21.1489 0.12111 21.175V21.1824C0.111742 21.264 0.103048 21.3476 0.0943499 21.4293C0.0883278 21.4901 0.0836433 21.553 0.0769522 21.6153V21.6213L0.0709283 21.6829C0.0709283 21.7069 0.0669118 21.7317 0.0649045 21.7558C0.0628971 21.7799 0.0602243 21.8073 0.058217 21.8334C0.058217 21.8468 0.058217 21.8602 0.058217 21.8735C0.058217 21.8869 0.0548692 21.913 0.0528619 21.9331L0.0481806 22.0074V22.0422C0.0408203 22.1265 0.034798 22.2148 0.0301142 22.3158V22.3219C0.0301142 22.3647 0.0254289 22.4082 0.0234216 22.451C0.0214142 22.4938 0.0180672 22.5413 0.016729 22.5848V22.6029C0.016729 22.6082 0.016729 22.6129 0.016729 22.6176C0.016729 22.6223 0.016729 22.6377 0.016729 22.6484V22.6644V22.6785C0.016729 22.7294 0.0120484 22.7802 0.0107102 22.8311C0.0107102 22.8525 0.0107102 22.8739 0.0107102 22.898C0.00736462 22.991 0.00468709 23.078 0.00334885 23.1656C0.00334885 23.179 0.00334885 23.1937 0.00334885 23.2084V23.2493C0.00334885 23.3229 0 23.3945 0 23.4681V23.6019C0 23.624 0 23.646 0 23.6688C0 23.6915 0 23.7002 0 23.7163C0 23.7324 0 23.7477 0 23.7631C0 23.7785 0 23.8066 0 23.8301V23.9023V23.9632C0.0648357 28.2598 1.8171 32.3585 4.87836 35.374C7.93962 38.3896 12.0642 40.08 16.3613 40.0802C17.0449 40.0793 17.7278 40.0362 18.4061 39.9511C18.7119 39.913 19.0163 39.8701 19.3188 39.8173C16.2361 37.947 13.752 35.2347 12.1592 32C12.0649 31.8073 11.9745 31.6132 11.8869 31.4185C11.8775 31.3971 11.8668 31.3764 11.8568 31.3549C10.547 28.3972 10.021 25.152 10.3295 21.932C10.6379 18.7119 11.7704 15.6256 13.6179 12.9703C14.1219 12.2486 14.6754 11.5629 15.2746 10.9181C18.1961 7.77596 22.1035 5.72626 26.3492 5.10856C30.595 4.49086 34.9244 5.34224 38.6201 7.52165C38.6189 7.51982 38.6173 7.51823 38.6154 7.51696L38.5351 7.43801C38.4997 7.40321 38.4629 7.3711 38.4267 7.33429L38.3933 7.30217L38.3846 7.29481V7.29147L38.3792 7.28544C38.3485 7.256 38.3123 7.22389 38.2802 7.19311C38.2481 7.16233 38.2133 7.1262 38.1752 7.09475L38.1711 7.09006L38.1678 7.08605L38.1591 7.07869L38.141 7.06196C38.1009 7.02382 38.0614 6.98769 38.0213 6.95155L38.0139 6.9442L37.961 6.89669L37.9349 6.87327C37.8767 6.82041 37.8192 6.76822 37.7623 6.71736C37.7054 6.66651 37.6325 6.60362 37.5696 6.54875L37.5074 6.49589C37.4639 6.45841 37.4211 6.42094 37.3736 6.38347L37.2852 6.30987L37.2377 6.26973L37.2023 6.24095L37.1842 6.22556C37.1313 6.1814 37.0811 6.13992 37.0303 6.09977L37.0229 6.09308H37.0196L37.0149 6.08907L37.0089 6.08438C36.9707 6.05226 36.9319 6.02215 36.8938 5.99137L36.8905 5.98803C36.768 5.889 36.6395 5.78729 36.5117 5.69094H36.5084C36.4743 5.66351 36.4415 5.63808 36.4047 5.61131L36.3625 5.5792L36.3371 5.55979L36.3197 5.54641L36.3143 5.5424L36.3097 5.53905H36.3063L36.2996 5.53503L36.228 5.4815L36.2019 5.4621L36.1042 5.38983L36.0735 5.36776L36.0179 5.32761L35.9791 5.29951C35.941 5.27073 35.9022 5.24397 35.8634 5.21654L35.8359 5.19646L35.8252 5.1891L35.8152 5.18174L35.5315 4.981H35.5275C35.4846 4.95156 35.4425 4.92212 35.399 4.89335L35.3682 4.87194H35.3649C35.298 4.83046 35.2371 4.78763 35.1722 4.74548L35.1615 4.73878L35.1568 4.73544L35.1507 4.7321L35.1099 4.70533L34.9714 4.61567L34.9641 4.61099L34.9574 4.6063C34.8905 4.5608 34.8189 4.51798 34.7479 4.47248L34.7406 4.46846L34.7312 4.46244C34.6603 4.41694 34.588 4.37211 34.5151 4.32861L34.4007 4.2617L34.3478 4.23026L34.2809 4.19078H34.2762L34.2361 4.16736L34.0795 4.07703L34.0407 4.05361L33.9871 4.02283C33.939 3.99472 33.8908 3.96662 33.8426 3.93986L33.8286 3.9325C33.5067 3.75251 33.1782 3.5792 32.8476 3.4146L32.8256 3.40323H32.8222L32.8149 3.39988C32.7426 3.36174 32.6697 3.32628 32.5947 3.29215L32.4 3.19915L32.3826 3.19112L32.3712 3.18576H32.3665H32.3619C32.1317 3.0767 31.9209 2.98503 31.7168 2.89603H31.7115H31.7068H31.7021H31.6968C31.6479 2.87395 31.5991 2.85321 31.5489 2.82912L31.5281 2.82109L31.5134 2.8144L31.4251 2.7776L31.3308 2.73946L31.2866 2.72139C31.0678 2.63307 30.8851 2.56215 30.7232 2.50126L30.6242 2.46446L30.6108 2.45977L30.5071 2.42096C30.2301 2.32059 29.941 2.22023 29.6513 2.1299H29.6479H29.6446L29.6305 2.12521C29.5757 2.10714 29.5201 2.09042 29.4653 2.07369L29.2953 2.0215L29.1943 1.99072C29.0685 1.95392 28.9487 1.91979 28.8336 1.88768H28.8262H28.8222L28.7754 1.87496L28.7005 1.85489L28.6851 1.85021L28.663 1.84351C28.4241 1.7766 28.1806 1.72173 27.9363 1.66553C27.7925 1.63207 27.6493 1.59861 27.5041 1.56917C27.2605 1.51765 27.017 1.46546 26.768 1.4213C26.6764 1.40524 26.586 1.38918 26.4944 1.37446H26.4897H26.4837C26.3933 1.3584 26.3017 1.34368 26.21 1.3303L26.0829 1.31157L25.9236 1.28748C25.6622 1.25134 25.3997 1.21945 25.1361 1.19179C24.6275 1.13893 24.115 1.10347 23.6024 1.08406C23.3174 1.07336 23.0317 1.06667 22.7466 1.06667C22.2662 1.06667 21.7845 1.08406 21.304 1.11417C21.2532 1.11417 21.203 1.11886 21.1521 1.1222C20.6215 1.159 20.0923 1.21387 19.569 1.28681L19.288 1.32829H19.2806L0.224828 20.2416L0.222816 20.2509Z" fill="#1E4AA4"/>
<path d="M45.1188 27.1529V27.1355V27.1174C45.1235 27.0853 45.1281 27.0505 45.1322 27.0211V27.0137V27.0016V26.9883C45.1382 26.9468 45.1455 26.904 45.1502 26.8625V26.8344L45.1549 26.8063C45.1549 26.7929 45.1582 26.7795 45.1609 26.7675L45.1783 26.6256L45.1917 26.5279C45.2037 26.4336 45.2138 26.3459 45.2238 26.2603V26.2482C45.2339 26.1639 45.2419 26.0843 45.2493 26.004C45.2559 25.9371 45.2626 25.8702 45.2673 25.8106V25.8073L45.2733 25.7457C45.278 25.7009 45.282 25.6567 45.2847 25.6119V25.5945V25.5771C45.2907 25.5196 45.2947 25.462 45.2981 25.4051V25.3964V25.3817C45.3055 25.2987 45.3115 25.2111 45.3162 25.1141V25.108C45.3222 25.0191 45.3269 24.9321 45.3322 24.8464V24.821V24.7855V24.7501C45.3369 24.6778 45.3396 24.6049 45.3423 24.5313C45.3456 24.4322 45.3489 24.3386 45.351 24.2442V24.2322V24.1893C45.351 24.1224 45.351 24.0555 45.351 23.9886V23.9117V23.8996C45.351 23.8407 45.351 23.7825 45.351 23.725C45.351 23.6674 45.351 23.6012 45.351 23.5416V23.537V23.4781C45.2868 19.1813 43.5348 15.0822 40.4734 12.0665C37.4119 9.05076 33.287 7.36056 28.9897 7.36104C27.9978 7.36133 27.008 7.4509 26.0322 7.62868C30.2914 10.2 33.3587 14.3536 34.563 19.1808C35.7673 24.008 35.0105 29.1157 32.4582 33.3863C29.9059 37.6569 25.766 40.7427 20.9442 41.9685C16.1224 43.1942 11.0114 42.4602 6.72949 39.927L6.73418 39.9317L6.74756 39.9437L6.7596 39.9558C6.77263 39.97 6.78649 39.9834 6.80109 39.9959L6.84659 40.0401C6.88339 40.0769 6.92019 40.1123 6.95766 40.1478L6.96368 40.1538L6.97104 40.1605C7.03193 40.2194 7.10487 40.289 7.17178 40.3532L7.18315 40.3619L7.19252 40.3713C7.23869 40.4155 7.28553 40.4596 7.33304 40.5051L7.33638 40.5085L7.34107 40.5118C7.4227 40.5874 7.50634 40.6617 7.59199 40.7366L7.59734 40.74L7.60202 40.7447L7.76796 40.8912L7.77867 40.8992L7.81547 40.9313H7.81881L7.98007 41.0705L8.01286 41.0986L8.02022 41.106C8.06371 41.1428 8.1072 41.1796 8.15404 41.215L8.17144 41.2284L8.1875 41.2431C8.22564 41.2759 8.26846 41.3101 8.31597 41.3482L8.33203 41.3602L8.34675 41.3723C8.38087 41.4017 8.41366 41.4298 8.44779 41.4539L8.45916 41.4626L8.46853 41.4706C8.58964 41.5683 8.71544 41.666 8.84257 41.7631C8.86933 41.7851 8.89743 41.8059 8.9242 41.83C8.95096 41.854 8.98642 41.8775 9.01854 41.9009C9.03661 41.9143 9.05401 41.9263 9.07007 41.9397L9.10084 41.9618L9.25341 42.0755L9.30091 42.1097L9.37786 42.1645L9.38723 42.1719L9.3986 42.1792C9.4354 42.2073 9.47421 42.2341 9.51235 42.2615L9.55384 42.291C9.64684 42.3579 9.74186 42.4248 9.83688 42.4917L9.84557 42.4964L9.85427 42.5024C9.89575 42.5319 9.93858 42.56 9.98007 42.5881L10.0122 42.6088L10.1172 42.6757L10.2283 42.75C10.2845 42.7868 10.3427 42.8256 10.4029 42.8624C10.4632 42.8992 10.5214 42.938 10.5789 42.9748H10.7235L10.9811 43.2204C11.0199 43.2451 11.0607 43.2692 11.1008 43.2927C11.1791 43.3388 11.2587 43.3857 11.3377 43.4265L11.3451 43.4312L11.3524 43.4359C11.4147 43.4727 11.4769 43.5068 11.5411 43.5422C11.8757 43.7316 12.2156 43.9109 12.5555 44.0775C12.6311 44.1157 12.706 44.1518 12.7803 44.1873L12.8131 44.2047C12.884 44.2375 12.9536 44.2716 13.0246 44.3044C13.2387 44.4041 13.4575 44.5051 13.6709 44.5941H13.6756H13.6803L13.8402 44.661C13.8563 44.667 13.873 44.6744 13.8917 44.6831L14.1058 44.7714C14.2805 44.8423 14.4698 44.9159 14.6679 44.9902H14.6746H14.6806C14.7415 45.0136 14.8031 45.0364 14.8653 45.0571H14.874H14.8813C15.1711 45.1635 15.4581 45.2579 15.7345 45.3482L15.7445 45.3515H15.7532C15.8094 45.3709 15.8643 45.3883 15.9205 45.4051H15.9292H15.9365C16.0209 45.4318 16.1052 45.4579 16.1895 45.4833L16.2604 45.5041L16.5622 45.5897L16.7181 45.6326H16.7301C17.3557 45.8012 17.9927 45.943 18.6204 46.0541H18.6277H18.6351C18.7107 46.0675 18.793 46.0822 18.8954 46.0996H18.9014H18.9061C19.0078 46.117 19.0914 46.1304 19.1691 46.1411H19.1811H19.1931C19.2815 46.1558 19.3705 46.1679 19.4608 46.1799H19.4682C21.5769 46.4733 23.716 46.4733 25.8248 46.1799L25.8468 46.1766C25.9312 46.1645 26.0141 46.1531 26.0978 46.1398H26.1098H26.1185L45.094 27.1649C45.1188 27.1743 45.1188 27.1669 45.1188 27.1529Z" fill="#E5EBF0"/>
<path d="M150.695 8.92334H153.243L158.976 23.6881H156.678L154.995 19.2063H148.67L147.01 23.6881H144.826L150.695 8.92334ZM154.449 17.6821L151.946 11.0163H151.742L149.239 17.6821H154.449Z" fill="#06235E"/>
<path d="M136.728 10.4703H131.723V8.92334H143.939V10.4703H138.957V23.6881H136.728V10.4703Z" fill="#06235E"/>
<path d="M127.067 8.92334H129.274V23.6881H127.067V8.92334Z" fill="#06235E"/>
<path d="M118.369 23.9156C117.11 23.9156 115.608 23.7943 113.864 23.5516V21.7089C115.623 22.088 117.17 22.2776 118.505 22.2776C119.627 22.2776 120.446 22.1563 120.962 21.9136C121.478 21.6558 121.736 21.1856 121.736 20.5031V18.5921C121.736 17.9551 121.554 17.5077 121.19 17.2499C120.826 16.992 120.189 16.8631 119.279 16.8631H117.55C116.109 16.8631 115.085 16.5749 114.478 15.9986C113.872 15.4223 113.568 14.5274 113.568 13.3141V12.1311C113.568 11.3273 113.743 10.6751 114.092 10.1746C114.456 9.67411 115.055 9.30253 115.889 9.05986C116.738 8.8172 117.898 8.69586 119.37 8.69586C120.355 8.69586 121.622 8.77928 123.169 8.94611V10.6069C121.44 10.349 120.12 10.2201 119.21 10.2201C117.8 10.2201 116.867 10.3566 116.412 10.6296C115.942 10.9178 115.707 11.3955 115.707 12.0629V13.7464C115.707 14.262 115.889 14.6412 116.253 14.8839C116.632 15.1114 117.277 15.2251 118.187 15.2251H119.961C120.977 15.2251 121.766 15.3464 122.327 15.5891C122.903 15.8318 123.305 16.2034 123.533 16.7039C123.776 17.1892 123.897 17.8489 123.897 18.6831V19.7524C123.897 20.7989 123.7 21.6254 123.305 22.2321C122.926 22.8388 122.335 23.271 121.531 23.5289C120.727 23.7867 119.673 23.9156 118.369 23.9156Z" fill="#06235E"/>
<path d="M108.094 8.92334H110.3V23.6881H108.094V8.92334Z" fill="#06235E"/>
<path d="M93.7192 8.92334H98.9062C100.211 8.92334 101.227 9.00676 101.955 9.17359C102.698 9.32526 103.236 9.60584 103.57 10.0153C103.919 10.4248 104.093 11.0239 104.093 11.8126V14.3606C104.093 15.2403 103.729 15.9228 103.001 16.4081C102.288 16.8783 101.378 17.1133 100.271 17.1133L105.003 23.6881H102.296L98.0645 17.3863H95.926V23.6881H93.7192V8.92334ZM98.8152 15.9303C99.9072 15.9303 100.688 15.8014 101.158 15.5436C101.644 15.2706 101.886 14.7853 101.886 14.0876V12.0401C101.886 10.9329 100.931 10.3793 99.02 10.3793H95.926V15.9303H98.8152Z" fill="#06235E"/>
<path d="M84.0571 23.9156C79.9318 23.9156 77.8691 22.5809 77.8691 19.9116V12.9274C77.8691 10.1064 79.9318 8.69586 84.0571 8.69586C88.228 8.69586 90.3134 10.0988 90.3134 12.9046V19.9116C90.3134 21.3373 89.7371 22.361 88.5844 22.9829C87.4317 23.6047 85.9226 23.9156 84.0571 23.9156ZM84.1026 22.4369C86.8175 22.4369 88.1749 21.5875 88.1749 19.8889V12.8591C88.1749 11.0391 86.8099 10.1291 84.0799 10.1291C82.7604 10.1291 81.7442 10.3339 81.0314 10.7434C80.3337 11.1529 79.9849 11.8581 79.9849 12.8591V19.8889C79.9849 21.5875 81.3575 22.4369 84.1026 22.4369Z" fill="#06235E"/>
<path d="M58.6836 8.92334H61.9823L66.7143 21.2083L66.7826 21.2311L71.2643 8.92334H74.4493V23.6881H72.5156V11.1983H72.4018L67.6471 23.6881H65.6678L60.7766 11.1983H60.6628V23.6881H58.6836V8.92334Z" fill="#06235E"/>
<path d="M132.342 34.3981H133.366V35.0693C133.472 34.546 134.075 34.2844 135.174 34.2844C135.879 34.2844 136.372 34.4133 136.653 34.6711C136.941 34.9214 137.085 35.3195 137.085 35.8655V39.9036H136.061V35.9224C136.061 35.7783 136.05 35.6608 136.027 35.5698C136.005 35.4788 135.959 35.3878 135.891 35.2968C135.739 35.1072 135.402 35.0124 134.878 35.0124C134.477 35.0124 134.166 35.0427 133.946 35.1034C133.733 35.1565 133.582 35.2475 133.491 35.3764C133.407 35.5053 133.366 35.6873 133.366 35.9224V39.9036H132.342V34.3981Z" fill="#06235E"/>
<path d="M128.208 40.0174C127.723 40.0174 127.359 39.9984 127.117 39.9605C126.874 39.9302 126.631 39.8581 126.389 39.7444C126.138 39.6306 125.956 39.4486 125.843 39.1984C125.729 38.9406 125.672 38.5955 125.672 38.1633V36.2523C125.672 35.911 125.714 35.6115 125.797 35.3536C125.88 35.0958 125.99 34.8949 126.127 34.7508C126.241 34.6219 126.411 34.5233 126.639 34.455C126.874 34.3792 127.113 34.3299 127.355 34.3071C127.628 34.292 127.913 34.2844 128.208 34.2844C128.603 34.2844 128.899 34.2958 129.096 34.3185C129.3 34.3337 129.517 34.3716 129.744 34.4323C129.979 34.5005 130.161 34.6029 130.29 34.7394C130.419 34.8759 130.529 35.0731 130.62 35.3309C130.703 35.5963 130.745 35.9034 130.745 36.2523V38.1633C130.745 38.8079 130.597 39.278 130.301 39.5738C130.18 39.6951 130.006 39.7899 129.778 39.8581C129.551 39.9264 129.316 39.9719 129.073 39.9946C128.785 40.0098 128.497 40.0174 128.208 40.0174ZM128.208 39.3463C128.527 39.3463 128.758 39.3387 128.902 39.3235C129.046 39.3084 129.187 39.2666 129.323 39.1984C129.46 39.1377 129.555 39.0391 129.608 38.9026C129.668 38.7586 129.699 38.5614 129.699 38.3111V36.0816C129.699 35.7404 129.657 35.4939 129.573 35.3423C129.49 35.183 129.346 35.0806 129.141 35.0351C128.944 34.9821 128.633 34.9555 128.208 34.9555C127.784 34.9555 127.469 34.9821 127.264 35.0351C127.067 35.0806 126.927 35.183 126.844 35.3423C126.76 35.4939 126.718 35.7404 126.718 36.0816V38.3111C126.718 38.5614 126.745 38.7586 126.798 38.9026C126.859 39.0391 126.957 39.1377 127.094 39.1984C127.23 39.2666 127.371 39.3084 127.515 39.3235C127.659 39.3387 127.89 39.3463 128.208 39.3463Z" fill="#06235E"/>
<path d="M123.078 32.4075H124.101V33.4767H123.078V32.4075ZM123.078 34.3981H124.101V39.9036H123.078V34.3981Z" fill="#06235E"/>
<path d="M120.81 40.0174C120.34 40.0174 119.972 39.9681 119.707 39.8695C119.441 39.7634 119.248 39.5889 119.127 39.3463C119.013 39.096 118.956 38.7472 118.956 38.2998V35.0693H117.728V34.3981H118.956V32.6919H119.991V34.3981H121.959V35.0693H119.991V38.3566C119.991 38.6296 120.021 38.8344 120.082 38.9709C120.15 39.1074 120.264 39.206 120.423 39.2666C120.59 39.3197 120.829 39.3463 121.14 39.3463C121.239 39.3463 121.512 39.3159 121.959 39.2553V39.9264C121.572 39.9871 121.189 40.0174 120.81 40.0174Z" fill="#06235E"/>
<path d="M114.075 40.0174C113.552 40.0174 113.146 39.9681 112.858 39.8695C112.577 39.7709 112.372 39.5965 112.244 39.3463C112.122 39.096 112.062 38.7358 112.062 38.2656C112.062 37.8486 112.118 37.5263 112.232 37.2988C112.353 37.0637 112.554 36.8969 112.835 36.7983C113.123 36.6997 113.529 36.6504 114.052 36.6504H115.702V35.7745C115.702 35.5698 115.66 35.4143 115.576 35.3081C115.501 35.1944 115.368 35.1148 115.178 35.0693C114.996 35.0238 114.727 35.001 114.371 35.001C113.802 35.001 113.172 35.0465 112.482 35.1375V34.3868C113.233 34.3185 113.912 34.2844 114.519 34.2844C115.156 34.2844 115.626 34.3337 115.929 34.4323C116.232 34.5233 116.441 34.6863 116.555 34.9214C116.668 35.1565 116.725 35.5205 116.725 36.0134V39.9036H115.736V39.3804C115.652 39.8051 115.099 40.0174 114.075 40.0174ZM114.246 39.3463C114.617 39.3463 114.932 39.3197 115.19 39.2666C115.531 39.1984 115.702 39.0391 115.702 38.7889V37.2874H114.12C113.794 37.2874 113.559 37.3139 113.415 37.367C113.271 37.4125 113.176 37.5035 113.131 37.64C113.085 37.7765 113.063 37.9964 113.063 38.2998C113.063 38.5728 113.089 38.7851 113.142 38.9368C113.195 39.0809 113.29 39.187 113.427 39.2553C113.563 39.3159 113.768 39.3463 114.041 39.3463H114.246Z" fill="#06235E"/>
<path d="M108.392 34.3981H109.359V35.2968C109.359 35.1224 109.435 34.9593 109.586 34.8076C109.738 34.6484 109.932 34.5233 110.167 34.4323C110.402 34.3337 110.633 34.2844 110.86 34.2844H111.361V35.1603H110.792C110.307 35.1603 109.954 35.2247 109.734 35.3536C109.522 35.475 109.416 35.6987 109.416 36.0248V39.9036H108.392V34.3981Z" fill="#06235E"/>
<path d="M104.259 40.0174C103.773 40.0174 103.409 39.9984 103.167 39.9605C102.924 39.9302 102.681 39.8581 102.439 39.7444C102.189 39.6306 102.007 39.4486 101.893 39.1984C101.779 38.9406 101.722 38.5955 101.722 38.1633V36.2523C101.722 35.911 101.764 35.6115 101.847 35.3536C101.931 35.0958 102.041 34.8949 102.177 34.7508C102.291 34.6219 102.462 34.5233 102.689 34.455C102.924 34.3792 103.163 34.3299 103.406 34.3071C103.679 34.292 103.963 34.2844 104.259 34.2844C104.653 34.2844 104.949 34.2958 105.146 34.3185C105.351 34.3337 105.567 34.3716 105.794 34.4323C106.029 34.5005 106.211 34.6029 106.34 34.7394C106.469 34.8759 106.579 35.0731 106.67 35.3309C106.754 35.5963 106.795 35.9034 106.795 36.2523V38.1633C106.795 38.8079 106.648 39.278 106.352 39.5738C106.23 39.6951 106.056 39.7899 105.829 39.8581C105.601 39.9264 105.366 39.9719 105.123 39.9946C104.835 40.0098 104.547 40.0174 104.259 40.0174ZM104.259 39.3463C104.577 39.3463 104.809 39.3387 104.953 39.3235C105.097 39.3084 105.237 39.2666 105.374 39.1984C105.51 39.1377 105.605 39.0391 105.658 38.9026C105.719 38.7586 105.749 38.5614 105.749 38.3111V36.0816C105.749 35.7404 105.707 35.4939 105.624 35.3423C105.54 35.183 105.396 35.0806 105.192 35.0351C104.994 34.9821 104.683 34.9555 104.259 34.9555C103.834 34.9555 103.519 34.9821 103.315 35.0351C103.117 35.0806 102.977 35.183 102.894 35.3423C102.81 35.4939 102.769 35.7404 102.769 36.0816V38.3111C102.769 38.5614 102.795 38.7586 102.848 38.9026C102.909 39.0391 103.008 39.1377 103.144 39.1984C103.281 39.2666 103.421 39.3084 103.565 39.3235C103.709 39.3387 103.94 39.3463 104.259 39.3463Z" fill="#06235E"/>
<path d="M95.3398 34.3981H96.3522V34.9896H96.3636C96.447 34.5195 97.0726 34.2844 98.2405 34.2844C98.9381 34.2844 99.4652 34.4323 99.8216 34.728C100.178 35.0162 100.356 35.3878 100.356 35.8428V38.1064C100.356 38.4325 100.307 38.7169 100.208 38.9595C100.117 39.2022 99.996 39.3918 99.8443 39.5283C99.7078 39.6572 99.5183 39.7596 99.2756 39.8354C99.0405 39.9112 98.8054 39.9605 98.5703 39.9833C98.358 40.006 98.1002 40.0174 97.7968 40.0174C97.4632 40.0174 97.1561 39.9795 96.8755 39.9036C96.6025 39.8202 96.4318 39.7027 96.3636 39.551V42.2696H95.3398V34.3981ZM97.8196 39.3235C98.2139 39.3235 98.5135 39.297 98.7182 39.2439C98.9305 39.1832 99.0822 39.0771 99.1732 38.9254C99.2642 38.7737 99.3097 38.5424 99.3097 38.2315V36.2068C99.3097 35.8655 99.2642 35.6115 99.1732 35.4446C99.0822 35.2778 98.9305 35.1679 98.7182 35.1148C98.5135 35.0541 98.2101 35.0238 97.8082 35.0238C97.4063 35.0238 97.1068 35.0541 96.9096 35.1148C96.7124 35.1679 96.5721 35.2778 96.4887 35.4446C96.4053 35.6039 96.3636 35.8579 96.3636 36.2068V38.2315C96.3636 38.5424 96.4053 38.7737 96.4887 38.9254C96.5797 39.0771 96.7276 39.1832 96.9323 39.2439C97.1371 39.297 97.4328 39.3235 97.8196 39.3235Z" fill="#06235E"/>
<path d="M91.3521 34.3981H92.3189V35.2968C92.3189 35.1224 92.3948 34.9593 92.5464 34.8076C92.6981 34.6484 92.8915 34.5233 93.1265 34.4323C93.3616 34.3337 93.5929 34.2844 93.8204 34.2844H94.3209V35.1603H93.7522C93.2668 35.1603 92.9142 35.2247 92.6943 35.3536C92.482 35.475 92.3758 35.6987 92.3758 36.0248V39.9036H91.3521V34.3981Z" fill="#06235E"/>
<path d="M87.2188 40.0174C86.7334 40.0174 86.3694 39.9984 86.1268 39.9605C85.8841 39.9302 85.6414 39.8581 85.3988 39.7444C85.1485 39.6306 84.9665 39.4486 84.8528 39.1984C84.739 38.9406 84.6821 38.5955 84.6821 38.1633V36.2523C84.6821 35.911 84.7238 35.6115 84.8073 35.3536C84.8907 35.0958 85.0006 34.8949 85.1371 34.7508C85.2509 34.6219 85.4215 34.5233 85.649 34.455C85.8841 34.3792 86.123 34.3299 86.3656 34.3071C86.6386 34.292 86.923 34.2844 87.2188 34.2844C87.6131 34.2844 87.9088 34.2958 88.106 34.3185C88.3108 34.3337 88.5269 34.3716 88.7544 34.4323C88.9895 34.5005 89.1715 34.6029 89.3004 34.7394C89.4293 34.8759 89.5393 35.0731 89.6303 35.3309C89.7137 35.5963 89.7554 35.9034 89.7554 36.2523V38.1633C89.7554 38.8079 89.6075 39.278 89.3118 39.5738C89.1904 39.6951 89.016 39.7899 88.7885 39.8581C88.561 39.9264 88.3259 39.9719 88.0833 39.9946C87.7951 40.0098 87.5069 40.0174 87.2188 40.0174ZM87.2188 39.3463C87.5373 39.3463 87.7685 39.3387 87.9126 39.3235C88.0567 39.3084 88.197 39.2666 88.3335 39.1984C88.47 39.1377 88.5648 39.0391 88.6179 38.9026C88.6785 38.7586 88.7089 38.5614 88.7089 38.3111V36.0816C88.7089 35.7404 88.6672 35.4939 88.5838 35.3423C88.5003 35.183 88.3563 35.0806 88.1515 35.0351C87.9543 34.9821 87.6434 34.9555 87.2188 34.9555C86.7941 34.9555 86.4794 34.9821 86.2746 35.0351C86.0775 35.0806 85.9372 35.183 85.8538 35.3423C85.7703 35.4939 85.7286 35.7404 85.7286 36.0816V38.3111C85.7286 38.5614 85.7552 38.7586 85.8083 38.9026C85.8689 39.0391 85.9675 39.1377 86.104 39.1984C86.2405 39.2666 86.3808 39.3084 86.5249 39.3235C86.669 39.3387 86.9003 39.3463 87.2188 39.3463Z" fill="#06235E"/>
<path d="M81.4125 40.0174C79.3423 40.0174 78.3071 39.35 78.3071 38.0154V34.5119C78.3071 33.1014 79.3423 32.3961 81.4125 32.3961C82.1178 32.3961 82.7927 32.4682 83.4373 32.6122V33.4312C82.7093 33.2492 82.0419 33.1582 81.4353 33.1582C81.1395 33.1582 80.8817 33.1772 80.6618 33.2151C80.4418 33.2455 80.2295 33.3023 80.0248 33.3857C79.5849 33.5753 79.365 33.9469 79.365 34.5005V37.9585C79.365 38.8078 80.0703 39.2325 81.4808 39.2325C82.0874 39.2325 82.7548 39.1415 83.4828 38.9595V39.8012C82.8382 39.9453 82.1481 40.0174 81.4125 40.0174Z" fill="#06235E"/>
</svg>
